<mxfile host="app.diagrams.net" agent="Mozilla/5.0 (Windows NT 10.0; Win64; x64) AppleWebKit/537.36 (KHTML, like Gecko) Chrome/131.0.0.0 Safari/537.36" version="25.0.3">
  <diagram name="Page-1" id="_VNjxSjIMz7xcF2dG-n9">
    <mxGraphModel dx="1050" dy="522" grid="1" gridSize="10" guides="1" tooltips="1" connect="1" arrows="1" fold="1" page="1" pageScale="1" pageWidth="850" pageHeight="1100" math="0" shadow="0">
      <root>
        <mxCell id="0" />
        <mxCell id="1" parent="0" />
        <mxCell id="rei8dWYcBY5KjDxPgK8N-2" value="User" style="html=1;whiteSpace=wrap;strokeColor=none;fillColor=#0079D6;labelPosition=center;verticalLabelPosition=middle;verticalAlign=top;align=center;fontSize=12;outlineConnect=0;spacingTop=-6;fontColor=#FFFFFF;sketch=0;shape=mxgraph.sitemap.user;" vertex="1" parent="1">
          <mxGeometry x="70" y="80" width="160" height="100" as="geometry" />
        </mxCell>
        <mxCell id="rei8dWYcBY5KjDxPgK8N-4" value="Mini-notion user" style="text;html=1;align=center;verticalAlign=middle;whiteSpace=wrap;rounded=0;" vertex="1" parent="1">
          <mxGeometry x="70" y="120" width="60" height="30" as="geometry" />
        </mxCell>
        <mxCell id="rei8dWYcBY5KjDxPgK8N-9" value="" style="whiteSpace=wrap;html=1;shape=mxgraph.basic.cloud_rect" vertex="1" parent="1">
          <mxGeometry x="340" y="20" width="430" height="270" as="geometry" />
        </mxCell>
        <mxCell id="rei8dWYcBY5KjDxPgK8N-10" value="" style="verticalLabelPosition=bottom;verticalAlign=top;html=1;shape=mxgraph.basic.diag_round_rect;dx=6;whiteSpace=wrap;fillColor=#ffe6cc;strokeColor=#d79b00;" vertex="1" parent="1">
          <mxGeometry x="360" y="50" width="150" height="80" as="geometry" />
        </mxCell>
        <mxCell id="rei8dWYcBY5KjDxPgK8N-11" value="Frontend&lt;br&gt;&lt;br&gt;Serves frontend pages to user" style="text;html=1;align=center;verticalAlign=middle;whiteSpace=wrap;rounded=0;" vertex="1" parent="1">
          <mxGeometry x="370" y="60" width="130" height="50" as="geometry" />
        </mxCell>
        <mxCell id="rei8dWYcBY5KjDxPgK8N-12" value="" style="endArrow=classic;html=1;rounded=0;" edge="1" parent="1" target="rei8dWYcBY5KjDxPgK8N-14">
          <mxGeometry relative="1" as="geometry">
            <mxPoint x="510" y="100" as="sourcePoint" />
            <mxPoint x="610" y="100" as="targetPoint" />
            <Array as="points">
              <mxPoint x="580" y="100" />
            </Array>
          </mxGeometry>
        </mxCell>
        <mxCell id="rei8dWYcBY5KjDxPgK8N-13" value="Api calls (HTTPS)" style="edgeLabel;resizable=0;html=1;;align=center;verticalAlign=middle;" connectable="0" vertex="1" parent="rei8dWYcBY5KjDxPgK8N-12">
          <mxGeometry relative="1" as="geometry" />
        </mxCell>
        <mxCell id="rei8dWYcBY5KjDxPgK8N-19" style="edgeStyle=orthogonalEdgeStyle;rounded=0;orthogonalLoop=1;jettySize=auto;html=1;exitX=0;exitY=0.5;exitDx=0;exitDy=0;exitPerimeter=0;entryX=1;entryY=0.5;entryDx=0;entryDy=0;" edge="1" parent="1" source="rei8dWYcBY5KjDxPgK8N-14" target="rei8dWYcBY5KjDxPgK8N-16">
          <mxGeometry relative="1" as="geometry" />
        </mxCell>
        <mxCell id="rei8dWYcBY5KjDxPgK8N-14" value="" style="verticalLabelPosition=bottom;verticalAlign=top;html=1;shape=mxgraph.basic.diag_round_rect;dx=6;whiteSpace=wrap;fillColor=#ffe6cc;strokeColor=#d79b00;" vertex="1" parent="1">
          <mxGeometry x="610" y="180" width="150" height="80" as="geometry" />
        </mxCell>
        <mxCell id="rei8dWYcBY5KjDxPgK8N-15" value="Backend&lt;br&gt;&lt;br&gt;Serves api functions to frontend" style="text;html=1;align=center;verticalAlign=middle;whiteSpace=wrap;rounded=0;" vertex="1" parent="1">
          <mxGeometry x="620" y="195" width="130" height="50" as="geometry" />
        </mxCell>
        <mxCell id="rei8dWYcBY5KjDxPgK8N-16" value="" style="image;aspect=fixed;perimeter=ellipsePerimeter;html=1;align=center;shadow=0;dashed=0;spacingTop=3;image=img/lib/active_directory/database.svg;" vertex="1" parent="1">
          <mxGeometry x="365" y="168.2" width="140" height="103.6" as="geometry" />
        </mxCell>
        <mxCell id="rei8dWYcBY5KjDxPgK8N-17" value="Database&lt;br&gt;Stores the data" style="text;html=1;align=center;verticalAlign=middle;whiteSpace=wrap;rounded=0;fontColor=#FFFFFF;" vertex="1" parent="1">
          <mxGeometry x="382.5" y="130" width="105" height="130" as="geometry" />
        </mxCell>
        <mxCell id="rei8dWYcBY5KjDxPgK8N-21" value="" style="endArrow=classic;html=1;rounded=0;entryX=-0.003;entryY=0.76;entryDx=0;entryDy=0;entryPerimeter=0;" edge="1" parent="1">
          <mxGeometry relative="1" as="geometry">
            <mxPoint x="230" y="140" as="sourcePoint" />
            <mxPoint x="360" y="111" as="targetPoint" />
            <Array as="points">
              <mxPoint x="300" y="140" />
            </Array>
          </mxGeometry>
        </mxCell>
        <mxCell id="rei8dWYcBY5KjDxPgK8N-22" value="Visits (Https)" style="edgeLabel;resizable=0;html=1;;align=center;verticalAlign=middle;" connectable="0" vertex="1" parent="rei8dWYcBY5KjDxPgK8N-21">
          <mxGeometry relative="1" as="geometry" />
        </mxCell>
      </root>
    </mxGraphModel>
  </diagram>
</mxfile>
